<svg id="visual" viewBox="0 0 1920 1080" width="1920" height="1080" xmlns="http://www.w3.org/2000/svg" xmlns:xlink="http://www.w3.org/1999/xlink" version="1.1"><rect x="0" y="0" width="1920" height="1080" fill="#160715"></rect><defs><linearGradient id="grad1_0" x1="43.8%" y1="0%" x2="100%" y2="100%"><stop offset="14.444444444444446%" stop-color="#df94d7" stop-opacity="1"></stop><stop offset="85.55555555555554%" stop-color="#df94d7" stop-opacity="1"></stop></linearGradient></defs><defs><linearGradient id="grad1_1" x1="43.8%" y1="0%" x2="100%" y2="100%"><stop offset="14.444444444444446%" stop-color="#df94d7" stop-opacity="1"></stop><stop offset="85.55555555555554%" stop-color="#a66ea1" stop-opacity="1"></stop></linearGradient></defs><defs><linearGradient id="grad1_2" x1="43.8%" y1="0%" x2="100%" y2="100%"><stop offset="14.444444444444446%" stop-color="#714a6e" stop-opacity="1"></stop><stop offset="85.55555555555554%" stop-color="#a66ea1" stop-opacity="1"></stop></linearGradient></defs><defs><linearGradient id="grad1_3" x1="43.8%" y1="0%" x2="100%" y2="100%"><stop offset="14.444444444444446%" stop-color="#714a6e" stop-opacity="1"></stop><stop offset="85.55555555555554%" stop-color="#40293f" stop-opacity="1"></stop></linearGradient></defs><defs><linearGradient id="grad1_4" x1="43.8%" y1="0%" x2="100%" y2="100%"><stop offset="14.444444444444446%" stop-color="#160715" stop-opacity="1"></stop><stop offset="85.55555555555554%" stop-color="#40293f" stop-opacity="1"></stop></linearGradient></defs><defs><linearGradient id="grad2_0" x1="0%" y1="0%" x2="56.3%" y2="100%"><stop offset="14.444444444444446%" stop-color="#df94d7" stop-opacity="1"></stop><stop offset="85.55555555555554%" stop-color="#df94d7" stop-opacity="1"></stop></linearGradient></defs><defs><linearGradient id="grad2_1" x1="0%" y1="0%" x2="56.3%" y2="100%"><stop offset="14.444444444444446%" stop-color="#a66ea1" stop-opacity="1"></stop><stop offset="85.55555555555554%" stop-color="#df94d7" stop-opacity="1"></stop></linearGradient></defs><defs><linearGradient id="grad2_2" x1="0%" y1="0%" x2="56.3%" y2="100%"><stop offset="14.444444444444446%" stop-color="#a66ea1" stop-opacity="1"></stop><stop offset="85.55555555555554%" stop-color="#714a6e" stop-opacity="1"></stop></linearGradient></defs><defs><linearGradient id="grad2_3" x1="0%" y1="0%" x2="56.3%" y2="100%"><stop offset="14.444444444444446%" stop-color="#40293f" stop-opacity="1"></stop><stop offset="85.55555555555554%" stop-color="#714a6e" stop-opacity="1"></stop></linearGradient></defs><defs><linearGradient id="grad2_4" x1="0%" y1="0%" x2="56.3%" y2="100%"><stop offset="14.444444444444446%" stop-color="#40293f" stop-opacity="1"></stop><stop offset="85.55555555555554%" stop-color="#160715" stop-opacity="1"></stop></linearGradient></defs><g transform="translate(1920, 0)"><path d="M0 648C-68.6 640.1 -137.2 632.1 -197.5 607.7C-257.8 583.3 -309.8 542.5 -366.8 504.8C-423.8 467.2 -485.8 432.8 -524.2 380.9C-562.7 329 -577.7 259.5 -594.4 193.1C-611.1 126.7 -629.6 63.4 -648 0L0 0Z" fill="#2a1a29"></path><path d="M0 518.4C-54.9 512.1 -109.7 505.7 -158 486.2C-206.2 466.7 -247.8 434 -293.4 403.9C-339 373.8 -388.6 346.2 -419.4 304.7C-450.2 263.2 -462.2 207.6 -475.5 154.5C-488.9 101.4 -503.6 50.7 -518.4 0L0 0Z" fill="#583956"></path><path d="M0 388.8C-41.1 384 -82.3 379.3 -118.5 364.6C-154.7 350 -185.9 325.5 -220.1 302.9C-254.3 280.3 -291.5 259.7 -314.5 228.5C-337.6 197.4 -346.6 155.7 -356.6 115.9C-366.7 76 -377.7 38 -388.8 0L0 0Z" fill="#8b5c87"></path><path d="M0 259.2C-27.4 256 -54.9 252.9 -79 243.1C-103.1 233.3 -123.9 217 -146.7 201.9C-169.5 186.9 -194.3 173.1 -209.7 152.4C-225.1 131.6 -231.1 103.8 -237.8 77.3C-244.4 50.7 -251.8 25.3 -259.2 0L0 0Z" fill="#c281bc"></path><path d="M0 129.6C-13.7 128 -27.4 126.4 -39.5 121.5C-51.6 116.7 -62 108.5 -73.4 101C-84.8 93.4 -97.2 86.6 -104.8 76.2C-112.5 65.8 -115.5 51.9 -118.9 38.6C-122.2 25.3 -125.9 12.7 -129.6 0L0 0Z" fill="#df94d7"></path></g><g transform="translate(0, 1080)"><path d="M0 -648C69.6 -642.2 139.3 -636.4 198.4 -610.6C257.5 -584.7 306 -538.8 363.8 -500.8C421.6 -462.8 488.7 -432.8 524.2 -380.9C559.8 -329 563.8 -255.3 579.2 -188.2C594.6 -121.1 621.3 -60.5 648 0L0 0Z" fill="#2a1a29"></path><path d="M0 -518.4C55.7 -513.8 111.4 -509.2 158.7 -488.5C206 -467.8 244.8 -431 291.1 -400.6C337.3 -370.2 391 -346.2 419.4 -304.7C447.8 -263.2 451.1 -204.2 463.4 -150.6C475.7 -96.9 497 -48.4 518.4 0L0 0Z" fill="#583956"></path><path d="M0 -388.8C41.8 -385.3 83.6 -381.9 119 -366.3C154.5 -350.8 183.6 -323.3 218.3 -300.5C253 -277.7 293.2 -259.7 314.5 -228.5C335.9 -197.4 338.3 -153.2 347.5 -112.9C356.7 -72.6 372.8 -36.3 388.8 0L0 0Z" fill="#8b5c87"></path><path d="M0 -259.2C27.9 -256.9 55.7 -254.6 79.4 -244.2C103 -233.9 122.4 -215.5 145.5 -200.3C168.7 -185.1 195.5 -173.1 209.7 -152.4C223.9 -131.6 225.5 -102.1 231.7 -75.3C237.8 -48.4 248.5 -24.2 259.2 0L0 0Z" fill="#c281bc"></path><path d="M0 -129.6C13.9 -128.4 27.9 -127.3 39.7 -122.1C51.5 -116.9 61.2 -107.8 72.8 -100.2C84.3 -92.6 97.7 -86.6 104.8 -76.2C112 -65.8 112.8 -51.1 115.8 -37.6C118.9 -24.2 124.3 -12.1 129.6 0L0 0Z" fill="#df94d7"></path></g></svg>