<?xml version="1.0" encoding="UTF-8"?>
<svg id="Warstwa_3" data-name="Warstwa 3" xmlns="http://www.w3.org/2000/svg" viewBox="0 0 528 528">
  <defs>
    <style>
      .cls-1 {
        stroke: #fffbe6;
        stroke-width: 12px;
      }

      .cls-1, .cls-2, .cls-3 {
        stroke-miterlimit: 10;
      }

      .cls-1, .cls-3 {
        fill: none;
      }

      .cls-2 {
        stroke: #000;
      }

      .cls-2, .cls-4 {
        fill: #050505;
      }

      .cls-5 {
        fill: #fffbe6;
      }

      .cls-6 {
        fill: #e87461;
      }

      .cls-7 {
        fill: #832232;
      }

      .cls-8 {
        fill: #ea9010;
      }

      .cls-3 {
        stroke: #050505;
        stroke-width: 7px;
      }

      .cls-9 {
        fill: #fa8334;
      }

      .cls-10 {
        fill: #14591d;
      }
    </style>
  </defs>
  <path class="cls-2" d="M520.4,292.9v.02c-.93,8.38-2.27,16.65-3.99,24.77v23.77h-6.23c-32.9,104.64-130.68,180.54-246.18,180.54S50.72,446.1,17.82,341.46c-1.89-6.04-3.57-12.17-5.03-18.39h-4.28v-22.94c-.6-4.26-1.09-8.55-1.48-12.87-.48-5.42-.8-10.89-.93-16.4v-.02c.62-5.6,1.43-11.15,2.41-16.64C30.05,133.46,135.56,41.81,262.49,41.81s232.25,91.49,253.92,212.06c2.29,12.71,3.64,25.74,3.99,39.03Z"/>
  <path class="cls-4" d="M516.41,210.36v131.1H17.82c-1.89-6.04-3.57-12.17-5.03-18.39h-4.28v-95.22C26.09,102.47,133.78,6,264,6s227.73,87.61,252.41,204.36Z"/>
  <path class="cls-5" d="M397.76,326.23H136.58c.17-7.31,.69-14.51,1.55-21.56,.37-3.09,.81-6.14,1.31-9.17,12.66-76.76,65.04-134.3,127.72-134.3s118.75,61.65,128.91,142.47c.2,1.57,.39,3.15,.54,4.74,.62,5.85,1,11.8,1.14,17.82Z"/>
  <path class="cls-5" d="M163.49,326.23h-45.94c1.3-8.6,3.81-16,7.21-21.38,3.48-5.52,7.9-8.93,12.91-9.34,.59-.05,1.18-.05,1.78,0,2.32,.15,4.59,.93,6.79,2.27,3.48,2.13,6.75,5.66,9.61,10.26,0,0,0,0,0,0,1.83,2.94,3.5,6.32,4.96,10.06,.98,2.52,1.86,5.21,2.64,8.04,0,.04,.02,.07,.03,.1Z"/>
  <path class="cls-5" d="M410.01,326.23h-43.16c3.29-6.21,7.07-11.43,11.04-15.32,3.98-3.9,8.13-6.46,12.18-7.3,2.05-.44,4.07-.43,6.01,.06,.07,0,.14,.03,.2,.05,2.61,.7,4.9,2.23,6.82,4.44,3.54,4.04,5.9,10.36,6.9,18.07Z"/>
  <path class="cls-8" d="M429.82,223.17c-.94,3.11-4.19,4.79-6.53,7.03-4.49,4.3-5.73,10.87-6.75,16.99-1.35,8.13-2.71,16.32-2.53,24.56,.14,6.19,1.14,12.38,.63,18.55-.52,6.17-2.85,12.59-7.91,16.15-5.06,3.56-13.2,2.97-16.38-2.34-1.08-1.8-1.52-3.94-2.64-5.72-2.09-3.3-6.11-4.77-8.94-7.46-8.74-8.29-3.02-22.63-2.76-34.68,.1-4.74-2.49-10.87-7.18-10.16-1.78,.27-3.22,1.52-4.56,2.72-3.97,3.56-7.94,7.13-11.91,10.69-2.43-.08-2-3.74-2.35-6.15-.91-6.35-10.27-5.88-15.78-9.18-6.22-3.74-6.72-11.86-6.79-19.48-3.96-.87-7.94-1.68-11.92-2.43-.96-.19-1.95-.36-2.91-.16-1.38,.28-2.46,1.29-3.56,2.18-4.76,3.86-10.94,5.82-17.06,5.69,1.66,6.9,.82,14.42-3.74,19.71-5.87,6.81-18.66,7.01-22.92-.9-2.47-4.59-3.12-11.84-8.32-12.18-4.85-.32-6.86,6.13-10.76,9.04-3.66,2.74-9.33,1.86-12.4-1.53-3.06-3.38-3.51-8.7-1.55-12.83-8.96,.74-20.04-.42-23.69-8.64-.71-1.61-1.04-3.3-1.14-5.03-6.39,3.18-13.39,5.7-20.37,6.36-.16,5-.32,10-.48,15-.13,4-.29,8.15-2.12,11.71-7.19,14.03-33.11,9-39.04,23.6-4.18,10.31,5.24,24.04-2.14,32.36-10.21-5.54-22.76-1.26-33.53,3.09,2-8.39,.22-17.61-4.76-24.65-1.87-2.65-4.17-5.02-5.57-7.94-3.47-7.24-.59-15.25,3.98-22.29,1.21,.45,2.66,.25,3.66-.57-.42-1.67-.19-3.31,.36-4.93,.42-.52,.85-1.04,1.27-1.54l-1.18,1.26c1.56-4.37,5.25-8.62,4.38-13.21-.61-3.23-3.36-5.62-4.64-8.65-1.87-4.43-.3-9.71,2.71-13.45,3-3.75,7.22-6.29,11.35-8.75-5.64-3.89-8.78-11.11-7.78-17.89,1-6.77,6.1-12.78,12.62-14.87,3.3-1.05,7.51-1.67,8.67-4.94,1.22-3.41-1.96-6.65-3.21-10.04-2.05-5.57,1.52-11.95,6.58-15.07,5.05-3.12,11.19-3.76,17.1-4.33-7.97-6.25-7.54-19.6-.66-27.04s18.15-9.48,28.1-7.53c-2.49-2.76-.56-7.47,2.62-9.38,3.19-1.91,7.09-2,10.74-2.7,15.22-2.95,27.22-17.01,42.72-17.26,2.49-.04,5.17,.4,7.21,1.73,.39,.86,1.05,1.54,1.98,1.88-.54-.76-1.22-1.38-1.98-1.88-.84-1.83-.47-4.42,.97-5.99,2.12-2.3,5.46-2.92,8.56-3.3,12.12-1.5,24.44-1.32,36.5,.55,2.82,.43,6.15,1.67,7.81,3.7-.58,1.22-.26,2.93,.96,3.61,.28-1.4-.13-2.6-.96-3.61,.21-.44,.54-.81,.98-1.05,15.88,4.7,30.62,13.24,42.6,24.68,10.46-1.95,21.84,2.26,28.51,10.55,7.47,1.88,14.27,6.32,18.99,12.4,3.65,4.72,6.02,10.28,8.34,15.78,5.83,13.88,11.53,27.81,17.1,41.8,2.81,7.07,5.62,14.92,3.1,22.1-.63,1.78-1.58,3.5-1.72,5.39-.59,8.43,14.46,12.78,12.02,20.87Z"/>
  <path class="cls-8" d="M102.59,254.39l4.96-5.32c-.03,.09-.06,.19-.09,.28-1.4,1.74-2.77,3.58-4.02,5.5-.31-.11-.59-.26-.85-.46Z"/>
  <path class="cls-8" d="M248.04,77.57c-.93-.34-1.59-1.02-1.98-1.88,.76,.5,1.44,1.12,1.98,1.88Z"/>
  <path class="cls-8" d="M300.86,74.26c-1.22-.68-1.54-2.39-.96-3.61,.83,1.01,1.24,2.21,.96,3.61Z"/>
  <path class="cls-6" d="M227.32,326.23h-64.04c.06-.03,.12-.07,.17-.1,.83-.5,1.71-.97,2.61-1.42,7.86-3.95,18.06-6.34,29.23-6.34,12.52,0,23.86,3.01,32.02,7.85Z"/>
  <path class="cls-6" d="M353.21,326.23h-43.42c6.32-2.19,13.75-3.46,21.71-3.46s15.39,1.26,21.7,3.46Z"/>
  <path class="cls-9" d="M191.05,329.55c1.93,0,1.93-3,0-3s-1.93,3,0,3h0Z"/>
  <path class="cls-9" d="M206.13,328.78c1.93,0,1.93-3,0-3s-1.93,3,0,3h0Z"/>
  <path class="cls-9" d="M219.66,326.84c1.93,0,1.93-3,0-3s-1.93,3,0,3h0Z"/>
  <path class="cls-9" d="M231.65,323.75c1.93,0,1.93-3,0-3s-1.93,3,0,3h0Z"/>
  <path class="cls-9" d="M187.57,321.82c1.93,0,1.93-3,0-3s-1.93,3,0,3h0Z"/>
  <path class="cls-9" d="M341.46,328.78c1.93,0,1.93-3,0-3s-1.93,3,0,3h0Z"/>
  <path class="cls-9" d="M176.74,320.66c1.93,0,1.93-3,0-3s-1.93,3,0,3h0Z"/>
  <path class="cls-9" d="M363.5,322.98c1.93,0,1.93-3,0-3s-1.93,3,0,3h0Z"/>
  <path class="cls-6" d="M266.06,314.86c1.93,0,1.93-3,0-3s-1.93,3,0,3h0Z"/>
  <path class="cls-6" d="M278.44,322.2c1.93,0,1.93-3,0-3s-1.93,3,0,3h0Z"/>
  <path class="cls-9" d="M282.99,326.23h-41.07c1.74-4.65,3.48-9.3,5.21-13.95,.83-2.26,1.68-4.51,2.51-6.78,1.93-5.18,3.85-10.36,5.78-15.54,1.63-1.94,3.25-3.88,4.87-5.82h0c1.37-1.64,2.75-3.27,4.12-4.91l14.78,3.48,.43,4.93,1.01,11.58,1.52,17.59,.83,9.42Z"/>
  <path class="cls-9" d="M229.54,298.97c-7.26,1.54-14.72,1.05-22.05,.41-3.49-.3-7.01-.59-10.41-1.46s-6.41-2.53-9.41-4.33c-1.66-.99-3.17,1.6-1.51,2.59,3.15,1.88,6.34,3.63,9.91,4.57s7.28,1.26,10.95,1.58c7.78,.68,15.63,1.16,23.33-.48,1.89-.4,1.09-3.29-.8-2.89h0Z"/>
  <path class="cls-9" d="M223.19,306c-2.74,3.59-7.08,3.92-11.24,4.38-4.66,.51-9.34,.91-14.04,.67-1.93-.1-1.92,2.9,0,3,5.34,.28,10.67-.28,15.97-.88,2.35-.26,4.69-.55,6.87-1.52,2.04-.91,3.68-2.37,5.03-4.13,1.17-1.53-1.43-3.03-2.59-1.51h0Z"/>
  <path class="cls-9" d="M191.34,307.61c5.73,.33,11.47,.38,17.2,.13,1.92-.08,1.93-3.08,0-3-5.73,.25-11.48,.2-17.2-.13-1.93-.11-1.92,2.89,0,3h0Z"/>
  <path class="cls-9" d="M295.73,304.16c4,.7,7.76,2.33,11.76,3.03s8.45,.57,12.62,.49c8.65-.17,16.98-2.25,25.26-4.61,1.85-.53,1.07-3.42-.8-2.89-8.02,2.29-16.08,4.33-24.46,4.5-4.01,.08-8.3,.3-12.26-.46-3.83-.74-7.46-2.27-11.31-2.94-1.89-.33-2.7,2.56-.8,2.89h0Z"/>
  <path class="cls-9" d="M306.79,311.58c5.55,1.62,11.14,3.67,16.89,4.44s11.1,.24,16.39-1.41c1.84-.57,1.05-3.47-.8-2.89-5.04,1.57-10.42,2.09-15.65,1.29s-10.76-2.78-16.03-4.32c-1.86-.54-2.65,2.35-.8,2.89h0Z"/>
  <path class="cls-9" d="M305.73,314.98c7.1,5.04,15.83,7.59,24.53,7.19,1.92-.09,1.93-3.09,0-3-8.23,.38-16.3-2.01-23.01-6.78-1.58-1.12-3.08,1.48-1.51,2.59h0Z"/>
  <g>
    <path class="cls-7" d="M165.53,274.05c6.16-7.78,15.82-11.97,25.46-14.31,3.59-.87,7.27-1.53,10.96-1.45,6.74,.14,13.27,2.73,20.01,2.8,.72,0,1.49-.03,2.1-.41,1.09-.69,1.25-2.32,.63-3.45s-1.8-1.83-3-2.31c-2.62-1.04-5.49-1.24-8.3-1.31-5.03-.12-10.07,.14-15.11-.08-2.27-.1-4.55-.3-6.8-.07-4.23,.41-8.2,2.29-11.68,4.72-5.27,3.68-9.6,8.7-12.46,14.47"/>
    <path class="cls-7" d="M166.59,275.11c5.29-6.6,12.97-10.5,20.95-12.88,4.65-1.39,9.53-2.53,14.41-2.43s9.58,1.51,14.36,2.26c3.27,.51,10.11,1.91,10.23-3.26,.12-4.67-5.78-6.03-9.37-6.45-4.95-.58-10.02-.19-14.99-.22s-9.99-.81-14.83,.63c-9.3,2.77-17.03,10.62-21.31,19.13-.86,1.72,1.72,3.24,2.59,1.51,3.57-7.1,9.41-13.36,16.7-16.7,1.86-.85,3.89-1.48,5.93-1.72,2.33-.27,4.68-.05,7.02,.05,4.71,.2,9.42,0,14.13,.06,2.26,.03,4.55,.08,6.76,.61,1.39,.33,4.36,1.06,4.36,2.93,0,1.71-3.73,.87-4.79,.75-2.23-.25-4.43-.71-6.63-1.16-4.39-.89-8.8-1.7-13.3-1.34s-8.55,1.35-12.66,2.61c-8.22,2.53-16.23,6.67-21.7,13.48-1.2,1.49,.91,3.63,2.12,2.12h0Z"/>
  </g>
  <g>
    <path class="cls-7" d="M313.63,266.21c5.66-2.23,11.99-.76,18.05-.22,3.13,.28,6.29,.3,9.42,.68,8.66,1.07,16.85,4.96,23.59,10.5,1.09,.89,2.16,1.86,2.78,3.12,.61,1.23,.73,2.63,.84,4-3.97-1.05-7.46-3.81-9.39-7.44-.75-1.41-1.33-3.01-2.62-3.96-.63-.47-1.39-.75-2.14-1.01-5.71-2.04-11.5-4.11-17.55-4.6-1.38-.11-2.77-.14-4.11-.46-1.35-.32-2.61-.93-3.93-1.32-4.24-1.27-8.78-.33-13.1,.61"/>
    <path class="cls-7" d="M314.03,267.65c3.75-1.41,7.69-1.25,11.61-.84s8.09,.79,12.16,1.06c7.67,.51,14.89,2.94,21.35,7.11,1.73,1.11,3.4,2.32,4.96,3.66,.8,.69,1.61,1.44,2.06,2.41s.54,2.15,.64,3.24l1.9-1.45c-3.3-.92-6.21-3.01-8.03-5.94-.88-1.42-1.43-3.04-2.53-4.32-1.22-1.41-2.98-1.94-4.68-2.55-4.03-1.44-8.09-2.83-12.3-3.63-2.04-.39-4.09-.58-6.15-.74s-3.98-1.01-6.03-1.62c-4.56-1.35-9.37-.37-13.9,.61-1.89,.41-1.09,3.3,.8,2.89,3.93-.85,8.11-1.78,12.08-.67,1.93,.54,3.69,1.39,5.71,1.65s4.17,.31,6.24,.68c4.06,.73,8,2.03,11.88,3.41,1.65,.58,3.54,.96,4.54,2.53,.9,1.43,1.49,2.99,2.5,4.35,2.26,3.04,5.44,5.22,9.09,6.24,.88,.24,1.98-.46,1.9-1.45-.17-1.99-.4-3.98-1.59-5.64s-2.84-2.87-4.43-4.07c-3.32-2.5-6.93-4.59-10.76-6.2s-7.68-2.66-11.72-3.17c-4.53-.58-9.11-.62-13.64-1.15-4.82-.57-9.79-1.03-14.43,.72-1.79,.67-1.01,3.58,.8,2.89h0Z"/>
  </g>
  <path class="cls-7" d="M353.28,267.61c-8.45-2.63-17.27-3.63-26.03-4.6l.4,2.95c9.14-1.59,18.43,1.14,26.46,5.44,1.7,.91,3.22-1.68,1.51-2.59-8.8-4.72-18.78-7.48-28.77-5.75-1.8,.31-1.14,2.78,.4,2.95,8.5,.94,17.04,1.94,25.23,4.49,1.85,.58,2.64-2.32,.8-2.89h0Z"/>
  <path class="cls-7" d="M326.19,265.75c1.93,0,1.93-3,0-3s-1.93,3,0,3h0Z"/>
  <path class="cls-9" d="M398.69,311.38c1.93,0,1.93-3,0-3s-1.93,3,0,3h0Z"/>
  <circle class="cls-7" cx="208.74" cy="292.57" r="9.86"/>
  <circle class="cls-7" cx="317.78" cy="295.47" r="9.86"/>
  <path class="cls-3" d="M251.37,293.15c0,4.28-.59,8.43-1.72,12.36-.66,2.34-1.5,4.6-2.51,6.78-2.44,5.23-5.83,9.95-9.99,13.95h-69.58c-.51-.5-1.02-1-1.49-1.51-1.95-2.05-3.71-4.26-5.25-6.62-2.05-3.13-3.73-6.49-4.96-10.06,0,0,0,0,0,0-1.62-4.68-2.5-9.68-2.5-14.88,0-12.01,4.69-22.96,12.42-31.25h0c5.24-5.65,11.87-10.07,19.38-12.75h0c5.35-1.93,11.13-2.98,17.18-2.98,27.07,0,49.01,21.03,49.01,46.98Z"/>
  <path class="cls-3" d="M378.39,304.18c0,2.29-.17,4.53-.5,6.74-.82,5.47-2.62,10.63-5.22,15.32h-86.57c-1.65-2.96-2.97-6.12-3.93-9.42-1.17-4.02-1.8-8.26-1.8-12.64,0-1.67,.09-3.32,.27-4.95,.28-2.56,.78-5.07,1.47-7.49h0c5.69-19.91,24.69-34.54,47.27-34.54,27.06,0,49.01,21.04,49.01,46.98Z"/>
  <path class="cls-4" d="M255.21,289.04c1.55-1.29,3.77-1.75,5.72-1.97,2.7-.3,5.48-.41,8.2-.28,2.35,.11,4.7,.54,6.64,1.66,1.69,.98,2.96,2.32,3.46,4.08,1.05,3.71,6.85,2.13,5.79-1.6-1.89-6.65-8.61-9.61-14.98-10.1-3.19-.24-6.52-.09-9.7,.3-3.48,.43-6.62,1.39-9.36,3.66-1.25,1.04-1.07,3.17,0,4.24,1.23,1.23,2.99,1.04,4.24,0h0Z"/>
  <path class="cls-10" d="M516.41,323.07v18.39h-6.23c-32.9,104.64-130.68,180.54-246.18,180.54S50.72,446.1,17.82,341.46c-1.89-6.04-3.57-12.17-5.03-18.39h503.62Z"/>
  <path class="cls-8" d="M327.46,215.92c5.27-1.17,10.47-2.9,15.04-5.84,1.62-1.04,.12-3.64-1.51-2.59-4.36,2.81-9.28,4.42-14.32,5.54-1.88,.42-1.09,3.31,.8,2.89h0Z"/>
  <path class="cls-8" d="M172.9,223.91c4.55,1.58,9.42,2.01,14.2,1.56,.81-.08,1.5-.64,1.5-1.5,0-.75-.69-1.58-1.5-1.5-4.55,.42-9.07,.05-13.4-1.46-.77-.27-1.64,.3-1.85,1.05-.23,.83,.28,1.58,1.05,1.85h0Z"/>
  <path class="cls-8" d="M344.94,227.36c-5.67-1.49-11.37-2.86-17.1-4.11-1.88-.41-2.69,2.48-.8,2.89,5.73,1.25,11.43,2.62,17.1,4.11,1.87,.49,2.67-2.4,.8-2.89h0Z"/>
  <path class="cls-8" d="M291.99,228.47c-3.47-.08-6.92-.83-10.06-2.37-.73-.36-1.62-.2-2.05,.54-.39,.66-.19,1.7,.54,2.05,3.62,1.77,7.55,2.68,11.58,2.77,.81,.02,1.5-.7,1.5-1.5s-.69-1.48-1.5-1.5h0Z"/>
  <path class="cls-1" d="M522,264c0,7.84-.35,15.6-1.03,23.26-.17,1.88-.36,3.77-.57,5.64v.02c-.93,8.38-2.27,16.65-3.99,24.77-.38,1.8-.78,3.59-1.2,5.38-1.46,6.22-3.14,12.35-5.03,18.39-32.9,104.64-130.68,180.54-246.18,180.54S50.72,446.1,17.82,341.46c-1.89-6.04-3.57-12.17-5.03-18.39-1.76-7.52-3.2-15.18-4.28-22.94-.6-4.26-1.09-8.55-1.48-12.87-.48-5.42-.8-10.89-.93-16.4v-.02c-.07-2.27-.1-4.56-.1-6.84,0-12.27,.86-24.34,2.51-36.15C26.09,102.47,133.78,6,264,6s227.73,87.61,252.41,204.36c3.66,17.3,5.59,35.25,5.59,53.64Z"/>
</svg>