<svg width="32" height="32" viewBox="0 0 32 32" fill="none" xmlns="http://www.w3.org/2000/svg">
<path d="M23.86 12.09C23.86 12.51 23.83 12.92 23.78 13.31C23.0124 12.975 22.1542 12.9093 21.3446 13.1235C20.5349 13.3377 19.8215 13.8193 19.32 14.49C18.9728 14.0277 18.5228 13.6524 18.0056 13.3938C17.4884 13.1352 16.9182 13.0004 16.34 13C14.29 13 12.63 14.67 12.63 16.74C12.63 19.42 14.05 21.47 15.63 22.86C15.58 22.89 15.53 22.9 15.48 22.92C15.18 23.03 14.68 23.03 14.38 22.92C11.79 22.03 6 18.35 6 12.09C6 9.33 8.22 7.1 10.96 7.1C12.59 7.1 14.03 7.88 14.93 9.09C15.3914 8.47244 15.9905 7.97101 16.6797 7.62556C17.3689 7.28011 18.1291 7.10015 18.9 7.1C21.64 7.1 23.86 9.33 23.86 12.09Z" fill="#D64933"/>
<path d="M26 16.74C26 21.42 21.67 24.18 19.73 24.84C19.5 24.92 19.13 24.92 18.9 24.84C18.07 24.56 16.8 23.89 15.63 22.86C14.05 21.47 12.63 19.42 12.63 16.74C12.63 14.67 14.29 13 16.34 13C17.56 13 18.64 13.59 19.32 14.49C19.8215 13.8193 20.5349 13.3377 21.3446 13.1235C22.1542 12.9093 23.0124 12.975 23.78 13.31C25.09 13.89 26 15.2 26 16.74Z" fill="#E87461"/>
</svg>
